<svg xmlns="http://www.w3.org/2000/svg" viewBox="0 0 32 32" fill="none">
  <rect width="32" height="32" rx="6" fill="#0a0a0f"/>
  <path d="M8 22V10h4.5c2.2 0 3.5 1.2 3.5 3 0 1.3-.7 2.3-1.8 2.7 1.4.3 2.3 1.5 2.3 3.1 0 2.2-1.5 3.2-3.8 3.2H8zm2.2-7.8h2.1c1.1 0 1.7-.5 1.7-1.4 0-.9-.6-1.3-1.7-1.3h-2.1v2.7zm0 5.8h2.4c1.2 0 1.9-.5 1.9-1.5s-.7-1.5-1.9-1.5h-2.4v3z" fill="#3b82f6"/>
  <path d="M17.5 22l3.5-12h2.3l3.5 12h-2.3l-.7-2.5h-3.5l-.7 2.5h-2.3zm3.2-4.5h2.4l-1.2-4.2-1.2 4.2z" fill="#e8e8ed"/>
</svg>
